<?xml version="1.0" standalone="no"?>
<!DOCTYPE svg PUBLIC "-//W3C//DTD SVG 20010904//EN"
 "http://www.w3.org/TR/2001/REC-SVG-20010904/DTD/svg10.dtd">
<svg version="1.0" xmlns="http://www.w3.org/2000/svg"
 width="1000.000000pt" height="632.000000pt" viewBox="0 0 1000.000000 632.000000"
 preserveAspectRatio="xMidYMid meet">
<metadata>
Created by potrace 1.13, written by Peter Selinger 2001-2015
</metadata>
<g transform="translate(0.000000,632.000000) scale(0.100000,-0.100000)"
fill="#B9AC95" stroke="none">
<path d="M446 6305 c-107 -27 -185 -73 -271 -160 -128 -127 -182 -265 -172
-435 7 -113 37 -203 98 -295 116 -174 297 -263 509 -252 52 3 104 8 116 12 19
6 91 -89 638 -839 339 -465 616 -850 616 -854 0 -5 -13 -33 -30 -63 -97 -180
-81 -424 39 -596 62 -88 126 -144 219 -190 l72 -36 0 -552 c0 -303 3 -633 7
-731 l6 -180 -68 -33 c-93 -46 -202 -151 -248 -239 -53 -101 -71 -172 -71
-282 0 -226 123 -421 327 -519 136 -65 250 -77 391 -41 195 50 341 184 407
373 24 69 29 98 29 182 0 113 -15 180 -61 275 -45 91 -160 204 -256 250 l-72
35 -1 710 c0 391 -3 720 -6 732 -5 19 1 26 47 46 158 71 285 223 324 389 32
136 14 283 -49 408 l-32 65 616 845 c489 670 620 844 636 842 10 -2 64 -6 119
-9 173 -9 304 39 430 158 121 115 179 250 179 419 0 226 -123 421 -327 519
-136 65 -250 77 -391 41 -195 -50 -341 -184 -407 -373 -24 -69 -29 -98 -29
-182 0 -113 15 -180 60 -271 16 -34 30 -64 30 -68 0 -3 -277 -386 -616 -852
-473 -649 -620 -844 -633 -839 -39 15 -156 22 -218 14 -38 -5 -77 -10 -87 -12
-16 -1 -154 181 -637 845 l-617 847 33 63 c60 112 81 263 54 390 -16 77 -69
185 -122 250 -58 71 -177 151 -265 179 -87 28 -235 34 -316 14z"/>
<path d="M6122 6300 c-202 -53 -365 -215 -417 -416 -19 -75 -19 -213 0 -289
41 -156 161 -307 298 -373 l67 -33 0 -744 0 -744 -71 -37 c-186 -98 -296 -271
-307 -479 -6 -126 8 -192 60 -297 143 -285 485 -397 777 -256 92 45 206 159
255 256 l36 72 1024 0 1023 0 37 -75 c49 -99 146 -198 242 -246 38 -19 72 -38
76 -44 4 -5 7 -336 5 -735 l-2 -725 -75 -40 c-98 -52 -193 -146 -243 -242
l-38 -73 -1028 0 -1028 0 -17 43 c-23 61 -106 165 -170 215 -107 83 -225 122
-364 122 -157 0 -287 -55 -402 -170 -117 -117 -170 -244 -170 -410 0 -160 57
-298 170 -410 230 -227 586 -226 816 4 48 48 83 94 108 144 l36 72 1024 0
1024 0 30 -62 c42 -90 111 -169 197 -227 176 -118 392 -132 584 -39 90 44 215
169 259 259 67 138 79 296 33 441 -45 140 -162 274 -298 341 l-63 31 0 732 0
731 63 31 c399 198 439 755 73 1000 -41 27 -102 59 -137 72 -88 30 -231 37
-323 16 -161 -38 -310 -155 -381 -299 l-38 -77 -1023 0 -1023 0 -31 63 c-57
116 -153 212 -267 269 l-63 31 0 743 0 743 55 25 c115 52 241 180 281 284 l17
42 1028 0 1028 0 38 -72 c73 -139 217 -253 369 -293 74 -19 200 -19 282 0 136
32 260 120 341 240 118 176 132 392 39 584 -44 90 -169 215 -259 259 -138 67
-296 79 -441 33 -141 -45 -277 -165 -340 -298 l-30 -63 -1024 0 -1024 0 -36
73 c-25 49 -60 95 -108 143 -150 150 -352 207 -554 154z"/>
</g>
</svg>
